<svg width="60" height="60" viewBox="0 0 60 60" fill="none" xmlns="http://www.w3.org/2000/svg">
<rect width="60" height="60" rx="12" fill="#F6B546"/>
<path d="M17.5403 27.5109C20.7747 24.4078 25.1622 22.5 29.9997 22.5C34.8372 22.5 39.2247 24.4078 42.4591 27.5109C43.0591 28.0828 44.006 28.0641 44.5778 27.4688C45.1497 26.8734 45.131 25.9219 44.5356 25.35C40.7669 21.7266 35.6435 19.5 29.9997 19.5C24.356 19.5 19.2325 21.7266 15.4591 25.3453C14.8638 25.9219 14.845 26.8688 15.4169 27.4688C15.9888 28.0688 16.9403 28.0875 17.5356 27.5109H17.5403ZM29.9997 30C32.6622 30 35.0903 30.9891 36.9466 32.625C37.57 33.1734 38.5169 33.1125 39.0653 32.4938C39.6138 31.875 39.5528 30.9234 38.9341 30.375C36.5528 28.275 33.4216 27 29.9997 27C26.5778 27 23.4466 28.275 21.07 30.375C20.4466 30.9234 20.3903 31.8703 20.9388 32.4938C21.4872 33.1172 22.4341 33.1734 23.0575 32.625C24.9091 30.9891 27.3372 30 30.0044 30H29.9997ZM32.9997 37.5C32.9997 36.7044 32.6836 35.9413 32.121 35.3787C31.5584 34.8161 30.7954 34.5 29.9997 34.5C29.2041 34.5 28.441 34.8161 27.8784 35.3787C27.3158 35.9413 26.9997 36.7044 26.9997 37.5C26.9997 38.2956 27.3158 39.0587 27.8784 39.6213C28.441 40.1839 29.2041 40.5 29.9997 40.5C30.7954 40.5 31.5584 40.1839 32.121 39.6213C32.6836 39.0587 32.9997 38.2956 32.9997 37.5Z" fill="white"/>
</svg>
