<svg width="60" height="60" viewBox="0 0 60 60" fill="none" xmlns="http://www.w3.org/2000/svg">
<rect width="60" height="60" rx="12" fill="#F6B546"/>
<path d="M29.7798 18.023C29.9251 17.9949 30.0751 17.9949 30.2204 18.023L39.5954 19.898C40.1204 20.0012 40.5001 20.4652 40.5001 20.9996C40.5001 21.534 40.1204 21.998 39.5954 22.1012L36.0001 22.823V25.4996C36.0001 28.8137 33.3142 31.4996 30.0001 31.4996C26.6861 31.4996 24.0001 28.8137 24.0001 25.4996V22.823L21.7501 22.373V25.4246L22.4861 29.0996C22.5283 29.3199 22.472 29.5496 22.3314 29.723C22.1908 29.8965 21.9751 29.9996 21.7501 29.9996H20.2501C20.0251 29.9996 19.8142 29.9012 19.6689 29.723C19.5236 29.5449 19.4673 29.3199 19.5142 29.0996L20.2501 25.4246V22.059C19.8048 21.9043 19.5001 21.4824 19.5001 20.9996C19.5001 20.4652 19.8798 20.0012 20.4048 19.898L29.7798 18.023ZM24.7454 33.3605C25.2376 33.2012 25.7673 33.3793 26.1236 33.759L29.4517 37.298C29.747 37.6121 30.2486 37.6121 30.5439 37.298L33.872 33.759C34.2283 33.3793 34.7579 33.2012 35.2501 33.3605C38.297 34.3402 40.5001 37.1902 40.5001 40.5605C40.5001 41.3574 39.8533 41.9996 39.0611 41.9996H20.9392C20.147 41.9996 19.5001 41.3527 19.5001 40.5605C19.5001 37.1902 21.7033 34.3402 24.7454 33.3605Z" fill="white"/>
</svg>
