<svg width="60" height="60" viewBox="0 0 60 60" fill="none" xmlns="http://www.w3.org/2000/svg">
<rect width="60" height="60" rx="12" fill="#F6B546"/>
<path d="M21 21C21 20.1703 20.3297 19.5 19.5 19.5C18.6703 19.5 18 20.1703 18 21V36.75C18 38.8219 19.6781 40.5 21.75 40.5H40.5C41.3297 40.5 42 39.8297 42 39C42 38.1703 41.3297 37.5 40.5 37.5H21.75C21.3375 37.5 21 37.1625 21 36.75V21ZM40.0594 25.0594C40.6453 24.4734 40.6453 23.5219 40.0594 22.9359C39.4734 22.35 38.5219 22.35 37.9359 22.9359L33 27.8766L30.3094 25.1859C29.7234 24.6 28.7719 24.6 28.1859 25.1859L22.9359 30.4359C22.35 31.0219 22.35 31.9734 22.9359 32.5594C23.5219 33.1453 24.4734 33.1453 25.0594 32.5594L29.25 28.3734L31.9406 31.0641C32.5266 31.65 33.4781 31.65 34.0641 31.0641L40.0641 25.0641L40.0594 25.0594Z" fill="white"/>
</svg>
