<svg width="60" height="60" viewBox="0 0 60 60" fill="none" xmlns="http://www.w3.org/2000/svg">
<rect width="60" height="60" rx="12" fill="#F6B546"/>
<path d="M26.3344 20.9625L26.8031 21.7781C26.9344 22.0031 27 22.2609 27 22.5234V24.4641C27 24.6469 27.075 24.825 27.2016 24.9516C27.4922 25.2422 27.975 25.2188 28.2328 24.8953L28.8703 24.0984C29.0906 23.8219 29.475 23.7375 29.7891 23.8969L30.5016 24.2531C30.6609 24.3328 30.8391 24.375 31.0172 24.375C31.3219 24.375 31.6172 24.2531 31.8328 24.0375L32.0156 23.8547C32.1516 23.7188 32.3578 23.6859 32.5312 23.7703L33.9 24.4547C34.2656 24.6375 34.4906 25.0078 34.4906 25.4156C34.4906 25.9078 34.1578 26.3344 33.6797 26.4562L32.0203 26.8687C31.6734 26.9531 31.3125 26.9391 30.9703 26.8266L29.4703 26.325C29.3156 26.2734 29.1562 26.2453 28.9922 26.2453C28.6641 26.2453 28.3453 26.3531 28.0828 26.55L26.25 27.9375C25.7766 28.2937 25.5 28.8469 25.5 29.4375V30.75C25.5 31.9922 26.5078 33 27.75 33H29.25C29.6625 33 30 33.3375 30 33.75V36C30 36.8297 30.6703 37.5 31.5 37.5C31.9734 37.5 32.4188 37.2797 32.7 36.9L33.9 35.3016C34.2891 34.7812 34.5 34.1484 34.5 33.5016V32.9344C34.5 32.7516 34.6219 32.5922 34.8 32.55L35.0484 32.4891C35.6063 32.3484 36 31.8469 36 31.2703C36 30.9375 35.8688 30.6188 35.6344 30.3844L34.0641 28.8141C33.8906 28.6406 33.8906 28.3594 34.0641 28.1859C34.3313 27.9187 34.725 27.825 35.0859 27.9469L35.7469 28.1672C36.3234 28.3594 36.9516 28.0969 37.2234 27.5578C37.3875 27.2297 37.7484 27.0516 38.1094 27.1266L39.3937 27.3844C38.25 23.2687 34.4766 20.25 30 20.25C28.7016 20.25 27.4688 20.5031 26.3344 20.9625ZM18 30C18 26.8174 19.2643 23.7652 21.5147 21.5147C23.7652 19.2643 26.8174 18 30 18C33.1826 18 36.2348 19.2643 38.4853 21.5147C40.7357 23.7652 42 26.8174 42 30C42 33.1826 40.7357 36.2348 38.4853 38.4853C36.2348 40.7357 33.1826 42 30 42C26.8174 42 23.7652 40.7357 21.5147 38.4853C19.2643 36.2348 18 33.1826 18 30Z" fill="white"/>
</svg>
