<svg width="60" height="60" viewBox="0 0 60 60" fill="none" xmlns="http://www.w3.org/2000/svg">
<rect width="60" height="60" rx="12" fill="#F6B546"/>
<path d="M26.625 18C28.0734 18 29.25 19.1766 29.25 20.625V39.375C29.25 40.8234 28.0734 42 26.625 42C25.2703 42 24.1547 40.9734 24.0141 39.6516C23.7703 39.7172 23.5125 39.75 23.25 39.75C21.5953 39.75 20.25 38.4047 20.25 36.75C20.25 36.4031 20.3109 36.0656 20.4187 35.7562C19.0031 35.2219 18 33.8531 18 32.25C18 30.7547 18.8766 29.4609 20.1469 28.8609C19.7391 28.35 19.5 27.7031 19.5 27C19.5 25.5609 20.5125 24.3609 21.8625 24.0656C21.7875 23.8078 21.75 23.5312 21.75 23.25C21.75 21.8484 22.7156 20.6672 24.0141 20.3391C24.1547 19.0266 25.2703 18 26.625 18ZM33.375 18C34.7297 18 35.8406 19.0266 35.9859 20.3391C37.2891 20.6672 38.25 21.8438 38.25 23.25C38.25 23.5312 38.2125 23.8078 38.1375 24.0656C39.4875 24.3562 40.5 25.5609 40.5 27C40.5 27.7031 40.2609 28.35 39.8531 28.8609C41.1234 29.4609 42 30.7547 42 32.25C42 33.8531 40.9969 35.2219 39.5812 35.7562C39.6891 36.0656 39.75 36.4031 39.75 36.75C39.75 38.4047 38.4047 39.75 36.75 39.75C36.4875 39.75 36.2297 39.7172 35.9859 39.6516C35.8453 40.9734 34.7297 42 33.375 42C31.9266 42 30.75 40.8234 30.75 39.375V20.625C30.75 19.1766 31.9266 18 33.375 18Z" fill="white"/>
</svg>
