<svg width="60" height="60" viewBox="0 0 60 60" fill="none" xmlns="http://www.w3.org/2000/svg">
<rect width="60" height="60" rx="12" fill="#F6B546"/>
<path d="M21.75 18C22.7446 18 23.6984 18.3951 24.4017 19.0983C25.1049 19.8016 25.5 20.7554 25.5 21.75C25.5 22.7446 25.1049 23.6984 24.4017 24.4017C23.6984 25.1049 22.7446 25.5 21.75 25.5C20.7554 25.5 19.8016 25.1049 19.0983 24.4017C18.3951 23.6984 18 22.7446 18 21.75C18 20.7554 18.3951 19.8016 19.0983 19.0983C19.8016 18.3951 20.7554 18 21.75 18ZM39 18C39.9946 18 40.9484 18.3951 41.6516 19.0983C42.3549 19.8016 42.75 20.7554 42.75 21.75C42.75 22.7446 42.3549 23.6984 41.6516 24.4017C40.9484 25.1049 39.9946 25.5 39 25.5C38.0054 25.5 37.0516 25.1049 36.3484 24.4017C35.6451 23.6984 35.25 22.7446 35.25 21.75C35.25 20.7554 35.6451 19.8016 36.3484 19.0983C37.0516 18.3951 38.0054 18 39 18ZM15 32.0016C15 29.2406 17.2406 27 20.0016 27H22.0031C22.7484 27 23.4563 27.1641 24.0938 27.4547C24.0328 27.7922 24.0047 28.1438 24.0047 28.5C24.0047 30.2906 24.7922 31.8984 26.0344 33C26.025 33 26.0156 33 26.0016 33H15.9984C15.45 33 15 32.55 15 32.0016ZM33.9984 33C33.9891 33 33.9797 33 33.9656 33C35.2125 31.8984 35.9953 30.2906 35.9953 28.5C35.9953 28.1438 35.9625 27.7969 35.9062 27.4547C36.5438 27.1594 37.2516 27 37.9969 27H39.9984C42.7594 27 45 29.2406 45 32.0016C45 32.5547 44.55 33 44.0016 33H33.9984ZM25.5 28.5C25.5 27.3065 25.9741 26.1619 26.818 25.318C27.6619 24.4741 28.8065 24 30 24C31.1935 24 32.3381 24.4741 33.182 25.318C34.0259 26.1619 34.5 27.3065 34.5 28.5C34.5 29.6935 34.0259 30.8381 33.182 31.682C32.3381 32.5259 31.1935 33 30 33C28.8065 33 27.6619 32.5259 26.818 31.682C25.9741 30.8381 25.5 29.6935 25.5 28.5ZM21 40.7484C21 37.2984 23.7984 34.5 27.2484 34.5H32.7516C36.2016 34.5 39 37.2984 39 40.7484C39 41.4375 38.4422 42 37.7484 42H22.2516C21.5625 42 21 41.4422 21 40.7484Z" fill="white"/>
</svg>
