<svg width="24" height="24" viewBox="0 0 24 24" fill="none" xmlns="http://www.w3.org/2000/svg">
<path d="M13.5014 7.55234C13.3384 7.37736 13.2496 7.14592 13.2538 6.90678C13.258 6.66764 13.3549 6.43948 13.524 6.27036C13.6932 6.10124 13.9213 6.00436 14.1605 6.00014C14.3996 5.99592 14.631 6.08469 14.806 6.24774L19.729 11.1708C19.9019 11.3438 19.999 11.5784 19.999 11.8231C19.999 12.0677 19.9019 12.3023 19.729 12.4754L14.806 17.3984C14.7215 17.4891 14.6196 17.5618 14.5064 17.6122C14.3931 17.6627 14.2709 17.6898 14.147 17.692C14.023 17.6942 13.8999 17.6714 13.785 17.625C13.67 17.5785 13.5656 17.5094 13.478 17.4218C13.3903 17.3341 13.3212 17.2297 13.2748 17.1148C13.2284 16.9999 13.2056 16.8767 13.2078 16.7528C13.21 16.6289 13.2371 16.5066 13.2875 16.3934C13.338 16.2802 13.4107 16.1783 13.5014 16.0938L16.8491 12.7461H4.92306C4.67825 12.7461 4.44347 12.6489 4.27036 12.4758C4.09725 12.3026 4 12.0679 4 11.8231C4 11.5782 4.09725 11.3435 4.27036 11.1703C4.44347 10.9972 4.67825 10.9 4.92306 10.9H16.8491L13.5014 7.55234Z" fill="#3B3D3F"/>
</svg>
