<svg width="26" height="26" viewBox="0 0 26 26" fill="none" xmlns="http://www.w3.org/2000/svg">
<path d="M10.0098 18.2685V11.245H7.67742V18.2685H10.0101H10.0098ZM8.84412 10.2862C9.65731 10.2862 10.1636 9.74693 10.1636 9.07293C10.1484 8.38358 9.65731 7.85931 8.85958 7.85931C8.06131 7.85931 7.53994 8.38358 7.53994 9.07287C7.53994 9.74687 8.04602 10.2862 8.82883 10.2862H8.84393L8.84412 10.2862ZM11.3009 18.2685H13.6331V14.3467C13.6331 14.137 13.6483 13.9269 13.7099 13.7771C13.8785 13.3576 14.2622 12.9232 14.9067 12.9232C15.7505 12.9232 16.0882 13.5673 16.0882 14.5115V18.2685H18.4204V14.2414C18.4204 12.0842 17.2699 11.0804 15.7354 11.0804C14.4773 11.0804 13.9247 11.7842 13.6178 12.2635H13.6333V11.2453H11.301C11.3314 11.9041 11.3008 18.2687 11.3008 18.2687L11.3009 18.2685Z" fill="#FAFAFA"/>
</svg>
