<svg width="26" height="26" viewBox="0 0 26 26" fill="none" xmlns="http://www.w3.org/2000/svg">
<path d="M10.8368 13.0341C10.8368 11.8365 11.8072 10.8653 13.0045 10.8653C14.2018 10.8653 15.1727 11.8365 15.1727 13.0341C15.1727 14.2318 14.2018 15.2029 13.0045 15.2029C11.8072 15.2029 10.8368 14.2318 10.8368 13.0341ZM9.66477 13.0341C9.66477 14.8792 11.16 16.3748 13.0045 16.3748C14.849 16.3748 16.3442 14.8792 16.3442 13.0341C16.3442 11.1891 14.849 9.69345 13.0045 9.69345C11.16 9.69345 9.66477 11.1891 9.66477 13.0341ZM15.696 9.56099C15.6959 9.7154 15.7416 9.86636 15.8273 9.99478C15.913 10.1232 16.0349 10.2233 16.1775 10.2825C16.3201 10.3416 16.477 10.3571 16.6284 10.3271C16.7798 10.297 16.9189 10.2227 17.0281 10.1136C17.1373 10.0044 17.2117 9.86535 17.2419 9.71392C17.272 9.56249 17.2566 9.40551 17.1976 9.26283C17.1386 9.12015 17.0386 8.99818 16.9103 8.91235C16.782 8.82651 16.6311 8.78066 16.4767 8.7806H16.4764C16.2695 8.7807 16.0711 8.86294 15.9248 9.00926C15.7784 9.15558 15.6961 9.35402 15.696 9.56099ZM10.3769 18.3298C9.74277 18.3009 9.39811 18.1952 9.16906 18.106C8.8654 17.9877 8.64874 17.8469 8.42094 17.6193C8.19315 17.3918 8.05214 17.1753 7.93445 16.8715C7.84516 16.6425 7.73953 16.2976 7.71071 15.6634C7.67918 14.9776 7.67288 14.7716 7.67288 13.0342C7.67288 11.2968 7.6797 11.0914 7.71071 10.405C7.73959 9.77074 7.84599 9.42656 7.93445 9.19687C8.05266 8.89313 8.19346 8.6764 8.42094 8.44854C8.64843 8.22068 8.86488 8.07963 9.16906 7.9619C9.398 7.87259 9.74277 7.76693 10.3769 7.7381C11.0625 7.70656 11.2684 7.70026 13.0045 7.70026C14.7406 7.70026 14.9467 7.70708 15.6329 7.7381C16.267 7.76699 16.6111 7.87342 16.8407 7.9619C17.1444 8.07963 17.361 8.22099 17.5888 8.44854C17.8166 8.67609 17.9571 8.89313 18.0753 9.19687C18.1646 9.42588 18.2702 9.77074 18.2991 10.405C18.3306 11.0914 18.3369 11.2968 18.3369 13.0342C18.3369 14.7716 18.3306 14.977 18.2991 15.6634C18.2702 16.2976 18.164 16.6424 18.0753 16.8715C17.9571 17.1753 17.8163 17.392 17.5888 17.6193C17.3613 17.8467 17.1444 17.9877 16.8407 18.106C16.6118 18.1953 16.267 18.3009 15.6329 18.3298C14.9473 18.3613 14.7414 18.3676 13.0045 18.3676C11.2676 18.3676 11.0622 18.3613 10.3769 18.3298ZM10.323 6.56767C9.63064 6.59921 9.15751 6.70903 8.74432 6.86985C8.31641 7.03593 7.95417 7.25875 7.59218 7.62027C7.23019 7.98178 7.00802 8.34471 6.84198 8.77274C6.6812 9.18631 6.57142 9.65931 6.53988 10.3519C6.50783 11.0456 6.5005 11.2674 6.5005 13.0341C6.5005 14.8009 6.50783 15.0227 6.53988 15.7164C6.57142 16.409 6.6812 16.882 6.84198 17.2955C7.00802 17.7233 7.23024 18.0867 7.59218 18.448C7.95411 18.8094 8.31641 19.0319 8.74432 19.1984C9.15829 19.3593 9.63064 19.4691 10.323 19.5006C11.0169 19.5322 11.2382 19.54 13.0045 19.54C14.7708 19.54 14.9925 19.5327 15.686 19.5006C16.3784 19.4691 16.8512 19.3593 17.2647 19.1984C17.6923 19.0319 18.0548 18.8095 18.4168 18.448C18.7788 18.0865 19.0005 17.7233 19.167 17.2955C19.3278 16.882 19.4381 16.409 19.4691 15.7164C19.5006 15.0222 19.508 14.8009 19.508 13.0341C19.508 11.2674 19.5006 11.0456 19.4691 10.3519C19.4376 9.65926 19.3278 9.18605 19.167 8.77274C19.0005 8.34497 18.7782 7.98236 18.4168 7.62027C18.0554 7.25817 17.6923 7.03593 17.2652 6.86985C16.8512 6.70903 16.3784 6.59869 15.6865 6.56767C14.993 6.53613 14.7713 6.52827 13.005 6.52827C11.2387 6.52827 11.0169 6.53561 10.323 6.56767Z" fill="white"/>
<path d="M10.8368 13.0341C10.8368 11.8365 11.8072 10.8653 13.0045 10.8653C14.2018 10.8653 15.1727 11.8365 15.1727 13.0341C15.1727 14.2318 14.2018 15.2029 13.0045 15.2029C11.8072 15.2029 10.8368 14.2318 10.8368 13.0341ZM9.66477 13.0341C9.66477 14.8792 11.16 16.3748 13.0045 16.3748C14.849 16.3748 16.3442 14.8792 16.3442 13.0341C16.3442 11.1891 14.849 9.69345 13.0045 9.69345C11.16 9.69345 9.66477 11.1891 9.66477 13.0341ZM15.696 9.56099C15.6959 9.7154 15.7416 9.86636 15.8273 9.99478C15.913 10.1232 16.0349 10.2233 16.1775 10.2825C16.3201 10.3416 16.477 10.3571 16.6284 10.3271C16.7798 10.297 16.9189 10.2227 17.0281 10.1136C17.1373 10.0044 17.2117 9.86535 17.2419 9.71392C17.272 9.56249 17.2566 9.40551 17.1976 9.26283C17.1386 9.12015 17.0386 8.99818 16.9103 8.91235C16.782 8.82651 16.6311 8.78066 16.4767 8.7806H16.4764C16.2695 8.7807 16.0711 8.86294 15.9248 9.00926C15.7784 9.15558 15.6961 9.35402 15.696 9.56099ZM10.3769 18.3298C9.74277 18.3009 9.39811 18.1952 9.16906 18.106C8.8654 17.9877 8.64874 17.8469 8.42094 17.6193C8.19315 17.3918 8.05214 17.1753 7.93445 16.8715C7.84516 16.6425 7.73953 16.2976 7.71071 15.6634C7.67918 14.9776 7.67288 14.7716 7.67288 13.0342C7.67288 11.2968 7.6797 11.0914 7.71071 10.405C7.73959 9.77074 7.84599 9.42656 7.93445 9.19687C8.05266 8.89313 8.19346 8.6764 8.42094 8.44854C8.64843 8.22068 8.86488 8.07963 9.16906 7.9619C9.398 7.87259 9.74277 7.76693 10.3769 7.7381C11.0625 7.70656 11.2684 7.70026 13.0045 7.70026C14.7406 7.70026 14.9467 7.70708 15.6329 7.7381C16.267 7.76699 16.6111 7.87342 16.8407 7.9619C17.1444 8.07963 17.361 8.22099 17.5888 8.44854C17.8166 8.67609 17.9571 8.89313 18.0753 9.19687C18.1646 9.42588 18.2702 9.77074 18.2991 10.405C18.3306 11.0914 18.3369 11.2968 18.3369 13.0342C18.3369 14.7716 18.3306 14.977 18.2991 15.6634C18.2702 16.2976 18.164 16.6424 18.0753 16.8715C17.9571 17.1753 17.8163 17.392 17.5888 17.6193C17.3613 17.8467 17.1444 17.9877 16.8407 18.106C16.6118 18.1953 16.267 18.3009 15.6329 18.3298C14.9473 18.3613 14.7414 18.3676 13.0045 18.3676C11.2676 18.3676 11.0622 18.3613 10.3769 18.3298ZM10.323 6.56767C9.63064 6.59921 9.15751 6.70903 8.74432 6.86985C8.31641 7.03593 7.95417 7.25875 7.59218 7.62027C7.23019 7.98178 7.00802 8.34471 6.84198 8.77274C6.6812 9.18631 6.57142 9.65931 6.53988 10.3519C6.50783 11.0456 6.5005 11.2674 6.5005 13.0341C6.5005 14.8009 6.50783 15.0227 6.53988 15.7164C6.57142 16.409 6.6812 16.882 6.84198 17.2955C7.00802 17.7233 7.23024 18.0867 7.59218 18.448C7.95411 18.8094 8.31641 19.0319 8.74432 19.1984C9.15829 19.3593 9.63064 19.4691 10.323 19.5006C11.0169 19.5322 11.2382 19.54 13.0045 19.54C14.7708 19.54 14.9925 19.5327 15.686 19.5006C16.3784 19.4691 16.8512 19.3593 17.2647 19.1984C17.6923 19.0319 18.0548 18.8095 18.4168 18.448C18.7788 18.0865 19.0005 17.7233 19.167 17.2955C19.3278 16.882 19.4381 16.409 19.4691 15.7164C19.5006 15.0222 19.508 14.8009 19.508 13.0341C19.508 11.2674 19.5006 11.0456 19.4691 10.3519C19.4376 9.65926 19.3278 9.18605 19.167 8.77274C19.0005 8.34497 18.7782 7.98236 18.4168 7.62027C18.0554 7.25817 17.6923 7.03593 17.2652 6.86985C16.8512 6.70903 16.3784 6.59869 15.6865 6.56767C14.993 6.53613 14.7713 6.52827 13.005 6.52827C11.2387 6.52827 11.0169 6.53561 10.323 6.56767Z" fill="white"/>
</svg>
