<svg width="26" height="26" viewBox="0 0 26 26" fill="none" xmlns="http://www.w3.org/2000/svg">
<path d="M19.4532 8.8831C19.0239 9.06802 18.5726 9.19679 18.1104 9.26622C18.3265 9.22915 18.6445 8.83984 18.771 8.68227C18.9633 8.44458 19.1098 8.17324 19.2032 7.88203C19.2032 7.8604 19.2248 7.8295 19.2032 7.81406C19.1923 7.80811 19.1801 7.80499 19.1677 7.80499C19.1553 7.80499 19.1431 7.80811 19.1322 7.81406C18.6303 8.08608 18.0962 8.2937 17.5424 8.432C17.5231 8.4379 17.5026 8.43843 17.483 8.43353C17.4634 8.42863 17.4455 8.41849 17.4313 8.40419C17.3882 8.35282 17.3418 8.30431 17.2924 8.25898C17.0665 8.05643 16.8102 7.89065 16.533 7.76771C16.1587 7.61402 15.7544 7.54746 15.3507 7.57306C14.9589 7.59782 14.5764 7.70299 14.227 7.88203C13.8829 8.07079 13.5805 8.32722 13.338 8.63592C13.0828 8.95365 12.8986 9.32239 12.7977 9.71732C12.7145 10.093 12.7051 10.4813 12.7699 10.8605C12.7699 10.9254 12.7699 10.9347 12.7144 10.9254C10.5134 10.601 8.70749 9.81928 7.23192 8.14157C7.16709 8.06741 7.13313 8.06741 7.08065 8.14157C6.43856 9.11792 6.75035 10.6628 7.55296 11.4259C7.66101 11.5279 7.77214 11.6268 7.88944 11.7195C7.52145 11.6933 7.16244 11.5935 6.8337 11.4259C6.77196 11.3858 6.738 11.4074 6.73491 11.4816C6.72616 11.5844 6.72616 11.6877 6.73491 11.7905C6.79932 12.2832 6.99332 12.7499 7.29705 13.143C7.60079 13.536 8.00336 13.8412 8.46362 14.0275C8.57582 14.0756 8.69273 14.1118 8.81245 14.1356C8.47178 14.2027 8.12238 14.2132 7.77831 14.1665C7.70422 14.1511 7.67644 14.1912 7.70422 14.2623C8.15801 15.4982 9.14275 15.8751 9.8651 16.0852C9.96389 16.1007 10.0627 16.1007 10.1738 16.1254C10.1738 16.1254 10.1738 16.1254 10.1553 16.1439C9.94228 16.5332 9.08101 16.7959 8.68588 16.9318C7.96466 17.1911 7.19571 17.2902 6.43239 17.2222C6.312 17.2037 6.28421 17.2068 6.25335 17.2222C6.22248 17.2377 6.25335 17.2717 6.2873 17.3026C6.44165 17.4045 6.596 17.4941 6.75652 17.5807C7.2344 17.8415 7.73961 18.0488 8.26297 18.1986C10.9733 18.9463 14.0233 18.3963 16.0576 16.3726C17.6566 14.7845 18.2185 12.5938 18.2185 10.4001C18.2185 10.3167 18.3203 10.2673 18.379 10.224C18.7835 9.90854 19.1402 9.53595 19.4378 9.11792C19.4894 9.0556 19.5158 8.97626 19.5119 8.89546C19.5119 8.84911 19.5119 8.85838 19.4532 8.8831Z" fill="white"/>
</svg>
